# xmcd
#
# Track frame offsets:
#	150
#	17502
#	38945
#	64500
#	87117
#	112417
#	131130
#	149432
#	167245
#	182512
#	205087
#
# Disc length: 2922 seconds
#
# Revision: 4294901761
# Processed by: cddbd v1.5.2PL0 Copyright (c) Steve Scherf et al.
# Submitted via: EZCDAudioConverter 8.0.2.1
#
DISCID=9a0b680b
DTITLE=Thái Châu - Nhà Anh Nhà Em
DYEAR=1992
DGENRE=Miscellaneous
TTITLE0=Ý Lan - Tình ca mùa hạ
TTITLE1=Thái Châu - Như giấc chiêm bao
TTITLE2=Ý Lan - Trả lại em
TTITLE3=Thái Châu - Nhà Anh Nhà Em
TTITLE4=Ý Lan - Ru đời chỉ là giấc mơ
TTITLE5=Thái Châu - Anh đến thăm em đêm 30
TTITLE6=Ý Lan - Hoa trắng thôi cài lên áo
TTITLE7=Thái Châu - Đừng hỏi vì sao em buồn
TTITLE8=Ý Lan - Đời còn vang bước em
TTITLE9=Thái Châu - Rừng xưa đã khép
TTITLE10=Soundtrack - Chờ người
EXTD=
EXTT0=
EXTT1=
EXTT2=
EXTT3=
EXTT4=
EXTT5=
EXTT6=
EXTT7=
EXTT8=
EXTT9=
EXTT10=
PLAYORDER=
